# xmcd CD database file
# Copyright (C) 1993-1998 Ti Kan
#
# Track frame offsets:
#  182
#  13062
#  24582
#  35832
#  48527
#  61110
#  74667
#  88015
#  100732
#  114142
#  128747
#  141922
#  158455
#  175880
#  190470
#  204482
#  221830
#  239962
#  257825
#  276940
#
# Disc length: 3931 seconds
#
# Revision: 2
# Processed by: cddbd v1.4b41PL1 Copyright (c) Steve Scherf et al.
# Submitted via: KiC 2.1 - (C) 1996-1998 Alwin Hoogerdijk
#
DISCID=2f0f5914
DTITLE=Marvin Gaye - The Marvin Gaye Collection Disc 1 - 20 Top 20's [CD1]
DYEAR=1900
DGENRE=
TTITLE0=Stubborn Kind Of Fellow
TTITLE1=Hitch Hike
TTITLE2=Pride And Joy
TTITLE3=Can I Get A Witness
TTITLE4=You're A Wonderful One
TTITLE5=Try It Baby
TTITLE6=How Sweet It Is (To Be Loved By You)
TTITLE7=I'll Be Doggone
TTITLE8=Ain't That Peculiar
TTITLE9=I Heard It Through The Grapevine
TTITLE10=Too Busy Thinking About My Baby
TTITLE11=That's The Way Love Is
TTITLE12=What's Going On
TTITLE13=Mercy. Mercy Me (The Ecology)
TTITLE14=Innner City Blues (Make Me Wanna Holler)
TTITLE15=Trouble Man
TTITLE16=Let's Get It On
TTITLE17=I Want You
TTITLE18=Got To Give It Up
TTITLE19=Sexual Healing
EXTD=
EXTT0=
EXTT1=
EXTT2=
EXTT3=
EXTT4=
EXTT5=
EXTT6=
EXTT7=
EXTT8=
EXTT9=
EXTT10=
EXTT11=
EXTT12=
EXTT13=
EXTT14=
EXTT15=
EXTT16=
EXTT17=
EXTT18=
EXTT19=
PLAYORDER=
